<?xml version="1.0" standalone="no"?><!DOCTYPE svg PUBLIC "-//W3C//DTD SVG 1.1//EN" "http://www.w3.org/Graphics/SVG/1.1/DTD/svg11.dtd"><svg t="1726761052976" class="icon" viewBox="0 0 1024 1024" version="1.1" xmlns="http://www.w3.org/2000/svg" p-id="116091" width="32" height="32" xmlns:xlink="http://www.w3.org/1999/xlink"><path d="M511.616 310.613333a201.045333 201.045333 0 0 1 0 402.005334 201.045333 201.045333 0 0 1 0-402.005334z m0 53.632c-39.338667 0-76.373333 15.317333-104.234667 43.093334a146.773333 146.773333 0 0 0-43.136 104.277333c0 39.381333 15.317333 76.373333 43.093334 104.277333a146.773333 146.773333 0 0 0 104.277333 43.136c39.381333 0 76.373333-15.36 104.277333-43.093333a146.773333 146.773333 0 0 0 43.136-104.32c0-39.338667-15.36-76.373333-43.093333-104.234667a146.773333 146.773333 0 0 0-104.32-43.136z" fill="#44D7B6" p-id="116092"></path><path d="M347.818667 683.648l-45.909334 171.178667a6.741333 6.741333 0 0 1-11.221333 3.029333l-34.261333-34.261333a13.44 13.44 0 0 0-18.901334 0l-111.914666 112a6.741333 6.741333 0 0 1-9.472 0l-28.458667-28.416a6.741333 6.741333 0 0 1 0-9.429334l111.957333-112a13.44 13.44 0 0 0 0-18.944l-34.218666-34.218666a6.698667 6.698667 0 0 1 2.986666-11.221334L339.626667 675.413333a6.656 6.656 0 0 1 8.234666 8.192zM935.594667 907.178667l-28.416 28.416a6.741333 6.741333 0 0 1-9.429334 0l-112.085333-112a13.44 13.44 0 0 0-18.944 0l-34.218667 34.261333a6.698667 6.698667 0 0 1-11.221333-2.986667l-45.909333-171.221333a6.698667 6.698667 0 0 1 8.192-8.192l171.221333 45.909333a6.741333 6.741333 0 0 1 2.986667 11.221334l-34.261334 34.218666a13.44 13.44 0 0 0 0 18.944l112 112c2.688 2.56 2.688 6.784 0.085334 9.429334zM165.418667 290.602667l34.218666-34.261334a13.44 13.44 0 0 0 0-18.901333L87.68 125.44a6.741333 6.741333 0 0 1 0-9.472l28.373333-28.373333c2.602667-2.56 6.869333-2.56 9.472 0l112 111.957333a13.44 13.44 0 0 0 18.901334 0l34.261333-34.218667a6.698667 6.698667 0 0 1 11.221333 2.986667l45.909334 171.221333a6.698667 6.698667 0 0 1-8.234667 8.192L168.405333 301.909333a6.826667 6.826667 0 0 1-2.986666-11.306666zM823.594667 256.426667l34.261333 34.261333a6.698667 6.698667 0 0 1-2.986667 11.221333L683.605333 347.733333a6.698667 6.698667 0 0 1-8.192-8.192l45.909334-171.221333a6.741333 6.741333 0 0 1 11.221333-2.986667l34.218667 34.218667a13.44 13.44 0 0 0 18.944 0l111.914666-111.957333c2.56-2.56 6.826667-2.56 9.429334 0l28.416 28.373333c2.56 2.602667 2.56 6.869333 0 9.472l-111.914667 112a13.397333 13.397333 0 0 0 0 18.986667z" fill="#1C6EFF" p-id="116093"></path><path d="M511.616 484.821333a26.88 26.88 0 0 1 26.837333 26.794667 26.88 26.88 0 0 1-26.837333 26.837333 26.88 26.88 0 0 1-26.794667-26.837333 26.88 26.88 0 0 1 26.794667-26.794667z m0-53.589333a80.426667 80.426667 0 1 0 0.042667 160.853333 80.426667 80.426667 0 0 0 0-160.853333z" fill="#44D7B6" p-id="116094"></path></svg>