<?xml version="1.0" standalone="no"?><!DOCTYPE svg PUBLIC "-//W3C//DTD SVG 1.1//EN" "http://www.w3.org/Graphics/SVG/1.1/DTD/svg11.dtd"><svg t="1726760870253" class="icon" viewBox="0 0 1024 1024" version="1.1" xmlns="http://www.w3.org/2000/svg" p-id="98610" width="32" height="32" xmlns:xlink="http://www.w3.org/1999/xlink"><path d="M63.296 511.008c0 247.424 200.576 448 448 448s448-200.576 448-448-200.608-448-448-448-448 200.576-448 448z" fill="#E548ED" p-id="98611"></path><path d="M63.296 512.192c0 247.424 200.576 448 448 448s448-200.576 448-448-200.608-448-448-448-448 200.576-448 448z" fill="#0074FF" p-id="98612"></path><path d="M679.52 241.44a20.64 20.64 0 0 0-12.128 18.976V310.4h-138.592c-74.976 0-137.504 68.736-152.544 159.936H172.768c-23.104 0-41.92 18.784-41.92 41.92 0 23.104 18.784 41.92 41.92 41.92h203.584c15.008 91.264 77.696 159.936 152.544 159.936h138.528v49.984c0 8 4.384 15.136 11.424 18.624 2.88 1.536 6.016 2.208 9.088 2.272h0.672a21.28 21.28 0 0 0 12.096-4l115.968-84.928a20.352 20.352 0 0 0 8.544-16 20.352 20.352 0 0 0-7.36-16.736l-115.968-99.04a21.12 21.12 0 0 0-22.4-3.104 20.704 20.704 0 0 0-12.16 19.008v50.016h-138.464c-34.08 0-72.096-48.448-72.096-117.92 0-69.504 38.016-118.016 72.096-118.016h138.464v50.016c0 7.904 4.416 15.104 11.488 18.624a21.184 21.184 0 0 0 21.92-1.728l115.968-84.896a20.544 20.544 0 0 0 8.544-16.064 20.32 20.32 0 0 0-7.36-16.704L701.92 244.48a20.608 20.608 0 0 0-13.312-4.992H688c-2.944 0-5.76 0.64-8.48 1.952z" fill="#FFFFFF" p-id="98613"></path></svg>