<?xml version="1.0" standalone="no"?><!DOCTYPE svg PUBLIC "-//W3C//DTD SVG 1.1//EN" "http://www.w3.org/Graphics/SVG/1.1/DTD/svg11.dtd"><svg t="1726761393813" class="icon" viewBox="0 0 1267 1024" version="1.1" xmlns="http://www.w3.org/2000/svg" p-id="139021" xmlns:xlink="http://www.w3.org/1999/xlink" width="39.59375" height="32"><path d="M992.792381 124.928H275.017143a97.52381 97.52381 0 0 0-97.52381 97.52381v579.09638a97.52381 97.52381 0 0 0 97.52381 97.52381h717.775238a97.52381 97.52381 0 0 0 97.523809-97.52381V222.45181a97.52381 97.52381 0 0 0-97.523809-97.52381zM275.017143 159.061333h717.775238a63.390476 63.390476 0 0 1 63.390476 63.390477v579.09638a63.390476 63.390476 0 0 1-63.390476 63.390477H275.017143a63.390476 63.390476 0 0 1-63.390476-63.390477V222.45181A63.390476 63.390476 0 0 1 275.017143 159.061333z" fill="#2684FC" p-id="139022"></path><path d="M278.918095 227.328m36.571429 0l129.706666 0q36.571429 0 36.571429 36.571429l0 515.657142q0 36.571429-36.571429 36.571429l-129.706666 0q-36.571429 0-36.571429-36.571429l0-515.657142q0-36.571429 36.571429-36.571429Z" fill="#9BC5FB" p-id="139023"></path><path d="M532.48 227.328m36.571429 0l129.706666 0q36.571429 0 36.571429 36.571429l0 515.657142q0 36.571429-36.571429 36.571429l-129.706666 0q-36.571429 0-36.571429-36.571429l0-515.657142q0-36.571429 36.571429-36.571429Z" fill="#9BC5FB" p-id="139024"></path><path d="M786.041905 227.328m36.571428 0l129.706667 0q36.571429 0 36.571429 36.571429l0 515.657142q0 36.571429-36.571429 36.571429l-129.706667 0q-36.571429 0-36.571428-36.571429l0-515.657142q0-36.571429 36.571428-36.571429Z" fill="#9BC5FB" p-id="139025"></path></svg>