<?xml version="1.0" standalone="no"?><!DOCTYPE svg PUBLIC "-//W3C//DTD SVG 1.1//EN" "http://www.w3.org/Graphics/SVG/1.1/DTD/svg11.dtd"><svg t="1726760919173" class="icon" viewBox="0 0 1024 1024" version="1.1" xmlns="http://www.w3.org/2000/svg" p-id="103314" width="32" height="32" xmlns:xlink="http://www.w3.org/1999/xlink"><path d="M528.668444 275.228444a38.4 38.4 0 0 0-38.4 38.4v243.2a38.4 38.4 0 1 0 76.8 0V313.628444a38.4 38.4 0 0 0-38.4-38.4z" fill="#5196FF" p-id="103315"></path><path d="M528.668444 518.428444h-179.2a38.4 38.4 0 1 0 0 76.8h179.2a38.4 38.4 0 1 0 0-76.8zM678.4 710.428444H921.6c25.6 0 38.4 12.8 38.4 38.4 0 25.6-12.8 38.4-38.4 38.4h-243.2c-25.6 0-38.4-12.8-38.4-38.4 0-25.6 12.8-38.4 38.4-38.4zM678.4 883.2H921.6c25.6 0 38.4 12.8 38.4 38.4 0 25.6-12.8 38.4-38.4 38.4h-243.2c-25.6 0-38.4-12.8-38.4-38.4 0-25.6 12.8-38.4 38.4-38.4z" fill="#5196FF" p-id="103316"></path><path d="M960 512A448 448 0 1 0 512 960a38.4 38.4 0 0 0 0-76.8A371.2 371.2 0 1 1 883.2 512a38.4 38.4 0 1 0 76.8 0z" fill="#5196FF" p-id="103317"></path></svg>