<?xml version="1.0" standalone="no"?><!DOCTYPE svg PUBLIC "-//W3C//DTD SVG 1.1//EN" "http://www.w3.org/Graphics/SVG/1.1/DTD/svg11.dtd"><svg t="1726761310842" class="icon" viewBox="0 0 1024 1024" version="1.1" xmlns="http://www.w3.org/2000/svg" p-id="126833" xmlns:xlink="http://www.w3.org/1999/xlink" width="32" height="32"><path d="M362.666667 256c153.173333 0 277.333333 124.16 277.333333 277.333333 0 153.088-124.16 277.333333-277.333333 277.333333S85.333333 686.421333 85.333333 533.333333C85.333333 380.16 209.493333 256 362.666667 256M362.666667 213.333333C186.197333 213.333333 42.666667 356.864 42.666667 533.333333S186.197333 853.333333 362.666667 853.333333s320-143.530667 320-320S539.136 213.333333 362.666667 213.333333L362.666667 213.333333z" fill="#666666" p-id="126834"></path><path d="M661.333333 256c153.173333 0 277.333333 124.16 277.333333 277.333333 0 153.088-124.16 277.333333-277.333333 277.333333C508.117333 810.666667 384 686.421333 384 533.333333 384 380.16 508.117333 256 661.333333 256M661.333333 213.333333C484.864 213.333333 341.333333 356.864 341.333333 533.333333s143.530667 320 320 320 320-143.530667 320-320S837.802667 213.333333 661.333333 213.333333L661.333333 213.333333z" fill="#666666" p-id="126835"></path><path d="M384 533.333333c0 98.090667 51.072 184.106667 128 233.429333 76.928-49.28 128-135.338667 128-233.429333 0-98.133333-51.072-184.149333-128-233.472C435.072 349.184 384 435.2 384 533.333333z" fill="#289DE9" p-id="126836"></path></svg>