<?xml version="1.0" standalone="no"?><!DOCTYPE svg PUBLIC "-//W3C//DTD SVG 1.1//EN" "http://www.w3.org/Graphics/SVG/1.1/DTD/svg11.dtd"><svg t="1726760481604" class="icon" viewBox="0 0 1024 1024" version="1.1" xmlns="http://www.w3.org/2000/svg" p-id="67608" width="32" height="32" xmlns:xlink="http://www.w3.org/1999/xlink"><path d="M500.778667 269.653333a27.008 27.008 0 0 1 20.010666 31.317334l-0.341333 1.536-54.058667 217.088a27.136 27.136 0 0 1-32 19.84 27.008 27.008 0 0 1-20.778666-31.445334l0.341333-1.578666 54.058667-217.045334a27.136 27.136 0 0 1 32.768-19.754666z m75.221333 5.418667a26.965333 26.965333 0 0 1 38.058667 3.498667l90.069333 108.544 1.109333 1.408a27.221333 27.221333 0 0 1-1.109333 33.322666l-90.026667 108.544-1.152 1.28a26.965333 26.965333 0 0 1-36.949333 2.176l-1.28-1.109333a27.221333 27.221333 0 0 1-2.176-37.12l75.648-91.136-75.648-91.178667-1.066667-1.322666a27.221333 27.221333 0 0 1 4.522667-36.906667z m-217.6 0a27.178667 27.178667 0 0 1 4.522667 36.906667l-1.066667 1.322666L286.208 404.48l75.648 91.178667a27.221333 27.221333 0 0 1-2.176 37.077333l-1.28 1.109333a26.965333 26.965333 0 0 1-36.949333-2.133333l-1.109334-1.28-90.069333-108.586667a27.178667 27.178667 0 0 1-1.109333-33.322666l1.109333-1.408 90.026667-108.544a27.050667 27.050667 0 0 1 38.101333-3.498667z" fill="#1245FA" p-id="67609"></path><path d="M902.698667 640c17.237333 0 34.048 5.632 46.72 16.085333 12.757333 10.538667 20.394667 25.258667 20.394666 41.130667v183.722667l-0.085333 2.645333v0.128a54.186667 54.186667 0 0 1-21.504 39.125333c-12.544 9.856-28.842667 15.146667-45.525333 15.146667h-312.917334c-17.237333 0-34.048-5.632-46.72-16.128a53.461333 53.461333 0 0 1-20.394666-41.088V697.173333c0-15.872 7.68-30.592 20.394666-41.130666A73.728 73.728 0 0 1 589.781333 640h312.917334z m13.568 48.512a21.546667 21.546667 0 0 0-13.568-4.565333h-312.917334a21.546667 21.546667 0 0 0-13.568 4.565333 11.434667 11.434667 0 0 0-4.608 8.704v183.552c0 2.816 1.322667 5.973333 4.608 8.704a21.504 21.504 0 0 0 13.568 4.522667H771.84c8.533333 0.085333 21.034667 0 21.034667 0h109.824c5.376 0 10.24-1.749333 13.568-4.522667a11.434667 11.434667 0 0 0 4.608-8.704V697.173333a11.434667 11.434667 0 0 0-4.608-8.704z" fill="#1245FA" p-id="67610"></path><path d="M608 725.333333m21.333333 0l85.333334 0q21.333333 0 21.333333 21.333334l0 0q0 21.333333-21.333333 21.333333l-85.333334 0q-21.333333 0-21.333333-21.333333l0 0q0-21.333333 21.333333-21.333334Z" fill="#1D2129" p-id="67611"></path><path d="M608 810.666667m21.333333 0l213.333334 0q21.333333 0 21.333333 21.333333l0 0q0 21.333333-21.333333 21.333333l-213.333334 0q-21.333333 0-21.333333-21.333333l0 0q0-21.333333 21.333333-21.333333Z" fill="#1D2129" p-id="67612"></path><path d="M866.56 104.106667A64 64 0 0 0 821.333333 85.333333H117.333333a64 64 0 0 0-64 64V810.666667a64 64 0 0 0 64 64H362.666667a32 32 0 0 0 0-64H138.666667a21.333333 21.333333 0 0 1-21.333334-21.333334V170.666667a21.333333 21.333333 0 0 1 21.333334-21.333334h661.333333a21.333333 21.333333 0 0 1 21.333333 21.333334v309.333333a32 32 0 0 0 64 0V149.333333a64 64 0 0 0-18.773333-45.226666z" fill="#1D2129" p-id="67613"></path><path d="M456.106667 627.2a59.733333 59.733333 0 0 1 59.733333-59.733333h309.333333a59.733333 59.733333 0 0 1 59.733334 59.733333v25.6h-42.666667v-25.6a17.066667 17.066667 0 0 0-17.066667-17.066667h-309.333333a17.066667 17.066667 0 0 0-17.066667 17.066667v166.4c0 9.386667 7.68 17.066667 17.066667 17.066667h25.6v42.666666h-25.6a59.733333 59.733333 0 0 1-59.733333-59.733333v-166.4z" fill="#1245FA" p-id="67614"></path></svg>