<?xml version="1.0" standalone="no"?><!DOCTYPE svg PUBLIC "-//W3C//DTD SVG 1.1//EN" "http://www.w3.org/Graphics/SVG/1.1/DTD/svg11.dtd"><svg t="1726761655974" class="icon" viewBox="0 0 1024 1024" version="1.1" xmlns="http://www.w3.org/2000/svg" p-id="155754" xmlns:xlink="http://www.w3.org/1999/xlink" width="32" height="32"><path d="M209.92 977.92c-60.928-24.064-112.64-64.512-134.656-104.96-11.264-20.48-11.264-22.528-12.8-354.816l-1.536-334.848 12.8-27.136C108.032 80.896 222.208 25.6 385.536 5.12c81.92-10.24 246.784-4.096 325.12 12.288 138.752 29.696 226.816 85.504 246.784 156.16 3.072 10.752 5.12 105.984 5.12 235.008v216.064h-43.52l1.536-84.992 1.536-84.992-17.408 13.312c-69.12 52.736-203.776 79.872-394.752 79.872-187.904 0-322.048-27.648-390.656-79.872l-16.896-12.8v177.152c0 114.176 2.048 185.344 5.632 200.192 7.68 30.208 42.496 61.44 93.696 84.48l38.912 17.408v27.136c0 14.336-1.536 26.624-3.584 26.112-2.56-0.512-14.336-4.608-27.136-9.728z m486.4-491.52c95.744-16.896 171.008-43.008 203.264-69.632 9.728-8.192 12.288-16.896 14.848-52.224l3.584-42.496-35.328 17.92c-45.568 23.04-97.28 39.424-171.008 54.784-53.248 10.752-72.192 12.288-194.56 12.288-121.856 0-141.312-1.024-190.976-11.776-79.36-16.384-133.12-34.304-182.272-60.416l-43.008-22.528 2.56 32.256c1.536 17.92 6.656 39.424 11.264 48.64 18.944 36.864 103.424 75.264 204.288 93.184 80.896 13.824 86.016 14.336 205.824 12.8 84.48-1.024 121.344-3.584 171.52-12.8z m-36.864-136.192c118.784-17.408 218.112-60.416 246.272-106.496 60.416-97.28-129.024-186.88-396.288-188.416-267.264-1.024-458.752 94.72-387.072 194.048 28.672 39.424 99.84 72.704 201.216 94.208 98.816 20.48 223.744 23.04 335.872 6.656z" fill="#1296db" p-id="155755"></path><path d="M133.12 752.64v-107.52h35.84v88.064l36.352-44.032c34.304-41.472 37.888-44.032 56.32-44.032 11.264 0 19.968 1.536 19.968 4.096-0.512 2.048-19.456 25.088-43.008 51.712l-42.496 48.64 43.52 50.176c24.064 27.648 45.056 50.176 46.592 50.176s20.48-46.08 41.472-102.4l38.4-102.4h36.864l22.016 57.856c12.288 31.232 30.72 79.872 41.472 107.52l19.456 50.176-20.992-1.536c-20.48-1.536-21.504-2.56-29.696-27.136l-8.704-25.6-40.96-1.536-40.96-1.536-10.24 27.136-10.24 27.136-40.448 1.536-40.96 1.536-35.328-44.544-35.84-44.544-1.536 44.544-1.536 44.032h-35.328v-107.52z m281.6 24.064c0-10.24-30.208-80.384-32.768-76.288-2.048 3.584-7.68 17.92-12.8 32.768-5.632 14.848-11.264 31.232-13.312 36.352-3.072 7.68 0 8.704 27.648 8.704 17.408 0 31.232-0.512 31.232-1.536zM506.88 752.64v-107.52h117.76v30.72h-81.92v66.56h38.4c37.376 0 38.4 0.512 38.4 12.8s-1.024 12.8-38.4 12.8h-38.4v92.16h-35.84v-107.52zM655.36 752.64v-107.52h35.84v93.184l38.912-46.592c36.864-44.032 39.936-46.592 58.88-46.592 10.752 0 19.968 1.536 19.968 3.072s-18.432 24.064-40.96 49.664c-22.528 26.112-40.96 49.664-40.448 52.224 0.512 6.144 80.896 99.84 85.504 99.84 2.048 0 20.992-46.08 41.984-102.4l38.4-102.4h36.864l22.016 57.856c12.288 31.232 30.72 79.872 41.472 107.52l19.456 50.176-20.992-1.536c-20.48-1.536-21.504-2.56-29.696-27.136l-8.704-25.6-40.96-1.536-40.96-1.536-10.24 27.136-10.24 27.136-40.96 1.536-40.96 1.536-37.888-47.104-37.888-46.592-1.536 46.592-1.536 46.592h-35.328v-107.52z m286.72 24.064c0-10.24-30.208-80.384-32.768-76.288-2.048 3.584-7.68 17.92-12.8 32.768-5.632 14.848-11.264 31.232-13.312 36.352-3.072 7.68 0 8.704 27.648 8.704 17.408 0 31.232-0.512 31.232-1.536z" fill="#1296db" p-id="155756"></path></svg>