<?xml version="1.0" standalone="no"?><!DOCTYPE svg PUBLIC "-//W3C//DTD SVG 1.1//EN" "http://www.w3.org/Graphics/SVG/1.1/DTD/svg11.dtd"><svg t="1726761695104" class="icon" viewBox="0 0 1024 1024" version="1.1" xmlns="http://www.w3.org/2000/svg" p-id="157711" xmlns:xlink="http://www.w3.org/1999/xlink" width="32" height="32"><path d="M200.464 143.336v504h608v-360l-160-160h-432a16 16 0 0 0-16 16z" fill="#B6E1F8" p-id="157712"></path><path d="M846.304 886.664H159.432a40.56 40.56 0 0 1-40.56-40.56V647.232c0-22.4 18.16-40.56 40.56-40.56h686.872c22.4 0 40.56 18.16 40.56 40.56v198.872c0 22.4-18.16 40.56-40.56 40.56z" fill="#209AD7" p-id="157713"></path><path d="M664.464 287.336h144l-160-160v144a16 16 0 0 0 16 16z" fill="#86D0F4" p-id="157714"></path><path d="M327.608 377.016h368v28h-368zM327.608 489.016h368v28h-368z" fill="#209AD7" p-id="157715"></path><path d="M399.392 708.168h-38c-1.344-18.656-11.344-28-30-28-19.344 1.344-29.344 9.344-30 24-1.344 14 10 22.672 34 26 1.328 0.672 2.656 1.344 4 2 44 8.672 65.656 25.344 65 50-1.344 38.672-27.672 58.656-79 60-48.672-0.672-72.344-21-71-61h40c0 22 10.328 33.344 31 34 24-0.656 36.328-8.656 37-24 0-12-11.672-20.656-35-26a87.984 87.984 0 0 1-7-2c-41.344-8.656-61.672-25.656-61-51 2-37.328 27.656-57.656 77-61 40 2.672 61 21.672 63 57zM612.392 811.168v29h-78c-3.344 0-6.344 0.328-9 1h-6c-2 0.656-3.344 1-4 1-58-1.344-87.672-32.656-89-94 1.328-62.656 31-95 89-97 56.656 2 86 34.344 88 97-2 25.344-11 47-27 65 1.328 0 5-0.328 11-1 5.328 0 9.328-0.328 12-1h13z m-97 4c30.656 0 46-22.328 46-67 0-45.328-15.344-68-46-68-32 0-47.672 22.672-47 68-0.672 45.344 15 67.672 47 67zM751.392 840.168H632.392V655.168h39v154h80v31z" fill="#EFF8FD" p-id="157716"></path></svg>