<?xml version="1.0" standalone="no"?><!DOCTYPE svg PUBLIC "-//W3C//DTD SVG 1.1//EN" "http://www.w3.org/Graphics/SVG/1.1/DTD/svg11.dtd"><svg t="1726760812149" class="icon" viewBox="0 0 1024 1024" version="1.1" xmlns="http://www.w3.org/2000/svg" p-id="93926" width="32" height="32" xmlns:xlink="http://www.w3.org/1999/xlink"><path d="M204.8 546.133H102.4c-20.48 0-34.133-13.653-34.133-34.133s13.653-34.133 34.133-34.133h102.4c20.48 0 34.133 13.653 34.133 34.133s-13.653 34.133-34.133 34.133z m716.8 0H819.2c-20.48 0-34.133-13.653-34.133-34.133s13.653-34.133 34.133-34.133h102.4c20.48 0 34.133 13.653 34.133 34.133s-13.653 34.133-34.133 34.133z" fill="#1296db" p-id="93927"></path><path d="M68.267 512V204.8c0-20.48 13.653-34.133 34.133-34.133s34.133 13.653 34.133 34.133V512c0 20.48-13.653 34.133-34.133 34.133S68.267 532.48 68.267 512z m819.2 307.2V512c0-20.48 13.653-34.133 34.133-34.133S955.733 491.52 955.733 512v307.2c0 20.48-13.653 34.133-34.133 34.133s-34.133-13.653-34.133-34.133z" fill="#1296db" p-id="93928"></path><path d="M921.6 853.333H819.2c-20.48 0-34.133-13.653-34.133-34.133s13.653-34.133 34.133-34.133h102.4c20.48 0 34.133 13.653 34.133 34.133s-13.653 34.133-34.133 34.133z m-716.8-614.4H102.4c-20.48 0-34.133-13.653-34.133-34.133s13.653-34.133 34.133-34.133h102.4c20.48 0 34.133 13.653 34.133 34.133s-13.653 34.133-34.133 34.133z" fill="#1296db" p-id="93929"></path><path d="M836.267 754.347L757.76 808.96c-3.413 3.413-6.827 6.827-6.827 10.24 0 3.413 3.414 6.827 6.827 10.24l78.507 54.613c10.24 6.827 17.066 3.414 17.066-10.24V757.76c0-6.827-6.826-10.24-17.066-3.413z m-648.534-614.4l78.507 54.613c3.413 3.413 6.827 6.827 6.827 10.24 0 3.413-3.414 6.827-6.827 10.24l-78.507 54.613c-10.24 6.827-17.066 3.414-17.066-10.24V143.36c0-6.827 6.826-10.24 17.066-3.413zM512 375.467c3.413 0 6.827 0 13.653 3.413L737.28 488.107c20.48 10.24 20.48 37.546 0 47.786L525.653 645.12c-3.413 3.413-6.826 3.413-13.653 3.413s-6.827 0-13.653-3.413L286.72 535.893a26.283 26.283 0 0 1 0-47.786L498.347 378.88c6.826-3.413 10.24-3.413 13.653-3.413M682.667 716.8H341.333c-37.546 0-68.266 30.72-68.266 68.267v68.266c0 37.547 30.72 68.267 68.266 68.267h341.334c37.546 0 68.266-30.72 68.266-68.267v-68.266c0-37.547-30.72-68.267-68.266-68.267zM614.4 853.333c-20.48 0-34.133-13.653-34.133-34.133s13.653-34.133 34.133-34.133 34.133 13.653 34.133 34.133-13.653 34.133-34.133 34.133zM273.067 170.667v68.266c0 37.547 30.72 68.267 68.266 68.267h341.334c37.546 0 68.266-30.72 68.266-68.267v-68.266c0-37.547-30.72-68.267-68.266-68.267H341.333c-37.546 0-68.266 30.72-68.266 68.267z m102.4 34.133c0-20.48 13.653-34.133 34.133-34.133s34.133 13.653 34.133 34.133-13.653 34.133-34.133 34.133-34.133-13.653-34.133-34.133z" fill="#1296db" p-id="93930"></path></svg>