<?xml version="1.0" standalone="no"?><!DOCTYPE svg PUBLIC "-//W3C//DTD SVG 1.1//EN" "http://www.w3.org/Graphics/SVG/1.1/DTD/svg11.dtd"><svg t="1727108758504" class="icon" viewBox="0 0 1024 1024" version="1.1" xmlns="http://www.w3.org/2000/svg" p-id="10612" xmlns:xlink="http://www.w3.org/1999/xlink" width="32" height="32"><path d="M967.936 796.928a57.088 57.088 0 0 1-57.088 57.088H113.024a56.96 56.96 0 0 1-56.96-57.088V226.944c0-31.488 25.408-56.96 56.96-56.96h797.888c31.488 0 57.088 25.472 57.088 56.96v569.984z" fill="#4B95FF" p-id="10613"></path><path d="M390.656 417.344H307.84v239.808h-62.08V417.344H163.072v-50.688h227.648v50.688zM638.912 417.344H556.032v239.808h-62.08V417.344H411.328v-50.688h227.648v50.688zM665.408 584c23.36 19.392 49.856 29.056 79.616 29.056 16.896 0 29.632-2.88 38.144-8.768a26.048 26.048 0 0 0 12.736-22.4c0-7.872-3.392-15.296-10.112-22.336s-24.64-16.512-53.504-28.48c-45.376-19.264-68.032-47.232-68.032-84.032 0-27.008 10.24-47.936 30.848-62.912 20.48-14.848 47.744-22.4 81.6-22.4 28.352 0 52.096 3.712 71.36 11.072v58.112a118.656 118.656 0 0 0-68.352-19.904c-15.232 0-27.52 2.816-36.608 8.32-9.152 5.632-13.632 13.056-13.632 22.464a28.8 28.8 0 0 0 9.344 20.672c6.272 6.4 21.632 14.848 46.272 25.6 28.992 12.48 48.832 25.536 59.712 39.296 10.752 13.76 16.128 30.144 16.128 49.152 0 27.904-9.856 49.152-29.632 63.744s-47.744 21.952-84.096 21.952c-33.28 0-60.48-5.376-81.728-16.128v-62.08z" fill="#FFFFFF" p-id="10614"></path></svg>