<?xml version="1.0" standalone="no"?><!DOCTYPE svg PUBLIC "-//W3C//DTD SVG 1.1//EN" "http://www.w3.org/Graphics/SVG/1.1/DTD/svg11.dtd"><svg t="1727103061529" class="icon" viewBox="0 0 1024 1024" version="1.1" xmlns="http://www.w3.org/2000/svg" p-id="5881" xmlns:xlink="http://www.w3.org/1999/xlink" width="32" height="32"><path d="M64.93 511.79c0 159.59 85.14 307.05 223.35 386.85 138.21 79.79 308.49 79.79 446.69 0 138.21-79.8 223.34-227.26 223.34-386.85 0-246.7-199.99-446.69-446.69-446.69-246.7-0.01-446.69 199.98-446.69 446.69z m0 0" fill="#FFE3DB" p-id="5882"></path><path d="M553.38 223.28l191.31 110.36c24.12 13.88 38.66 39.65 38.66 67.08v149.35c20.82-0.33 40.31 10.58 50.89 28.42l0.33 0.66c15.53 25.77 7.27 59.48-18.83 75l-1.65 0.99-268.3 148.69c-13.55 7.6-29.74 9.25-44.61 4.96-9.25-1.65-17.84-4.63-25.77-9.25L284.08 689.18c-24.12-13.88-38.66-39.65-38.66-67.08V478.7c-22.47 2.31-44.28-8.59-55.84-27.76-15.86-26.1-7.27-60.14 18.83-76 0.66-0.33 1.65-0.99 2.31-1.32l69.06-37.01c1.32-0.99 2.97-1.98 4.29-2.64l191.65-110.69c23.8-13.87 53.54-13.87 77.66 0zM487.62 396.1h-52.21l-76 209.16h48.9l15.86-47.58h76l15.86 47.58h48.9L487.62 396.1z m148.69-0.99h-44.28v209.16h44.28V395.11z m-172.48 36.34c0.99 5.95 1.65 10.58 2.64 14.54l0.99 3.63 23.79 72.69h-55.84l23.79-72.69c0.66-3.63 1.98-7.93 2.64-12.22l0.66-5.95h1.33z m0 0" fill="#F23D4F" p-id="5883"></path><path d="M466.47 445.99c-0.99-3.96-1.65-8.59-2.64-14.54h-1.32l-0.66 5.95c-0.66 4.3-1.98 8.59-2.64 12.22l-23.79 72.69h55.84l-23.79-72.69-1-3.63z" fill="#FC4956" p-id="5884"></path><path d="M783.36 455.54v-54.82c0-27.43-14.54-53.2-38.66-67.08L553.38 223.28c-24.12-13.88-53.86-13.88-77.65 0L284.08 333.97c-1.32 0.66-2.97 1.65-4.29 2.64l-69.06 37.01c-0.66 0.33-1.65 0.99-2.31 1.32-26.1 15.86-34.69 49.89-18.83 76 11.56 19.17 33.37 30.07 55.84 27.76v143.4c0 27.42 14.54 53.2 38.66 67.08l144.11 83.13a446.202 446.202 0 0 0 149.29-53.66c101.43-58.56 174.28-153.59 205.87-263.11z m-191.32-60.43h44.28v209.16h-44.28V395.11z m-76 210.14l-15.86-47.58h-76l-15.86 47.58h-48.9l76-209.16h52.21l77.32 209.16h-48.91z" fill="#FC4956" p-id="5885"></path><path d="M553.38 223.28c-24.12-13.88-53.86-13.88-77.65 0L284.08 333.97c-1.32 0.66-2.97 1.65-4.29 2.64l-69.06 37.01c-0.66 0.33-1.65 0.99-2.31 1.32-26.1 15.86-34.69 49.89-18.83 76 11.56 19.17 33.37 30.07 55.84 27.76v142.7c38.58-0.83 77.07-6.65 114.48-17.47l75.52-207.83h52.21l42.44 114.81c23-20.13 43.73-42.47 61.97-66.58v-49.22h32.36a446.572 446.572 0 0 0 43.22-105.92l-114.25-65.91z" fill="#FF5C64" p-id="5886"></path><path d="M466.47 445.99c-0.99-3.96-1.65-8.59-2.64-14.54h-1.32l-0.66 5.95c-0.66 4.3-1.98 8.59-2.64 12.22l-23.79 72.69h55.84l-23.79-72.69-1-3.63zM415.48 583.78a448.33 448.33 0 0 0 43.68-22.11c2.27-1.31 4.53-2.65 6.78-4h-41.76l-8.7 26.11z" fill="#FF5C64" p-id="5887"></path><path d="M519.26 213.03c-15.02-0.93-30.21 2.48-43.54 10.26L284.08 333.97c-1.32 0.66-2.97 1.65-4.29 2.64l-69.06 37.01c-0.66 0.33-1.65 0.99-2.31 1.32-26.1 15.86-34.69 49.89-18.83 76 1.47 2.44 3.11 4.74 4.89 6.89a445.897 445.897 0 0 0 146.37-53.16c78.61-45.38 140.04-112.68 178.41-191.64z" fill="#FF716E" p-id="5888"></path></svg>