<?xml version="1.0" standalone="no"?><!DOCTYPE svg PUBLIC "-//W3C//DTD SVG 1.1//EN" "http://www.w3.org/Graphics/SVG/1.1/DTD/svg11.dtd"><svg t="1726760630226" class="icon" viewBox="0 0 1024 1024" version="1.1" xmlns="http://www.w3.org/2000/svg" p-id="70662" width="32" height="32" xmlns:xlink="http://www.w3.org/1999/xlink"><path d="M384 96a32 32 0 0 1 32 32v256a32 32 0 0 1-32 32H256.64v44.928a32 32 0 0 0 26.24 31.488l5.76 0.512h448.896a32 32 0 0 0 32-32l-0.064-44.928H640a32 32 0 0 1-32-32V128a32 32 0 0 1 32-32h256a32 32 0 0 1 32 32v256a32 32 0 0 1-32 32h-62.528v44.928a96 96 0 0 1-86.72 95.552l-9.216 0.448L544 556.8v86.4a160.064 160.064 0 0 1 127.68 146.24l0.32 10.496a160 160 0 1 1-192-156.8V556.8H288.64a96 96 0 0 1-95.552-86.72l-0.448-9.216v-44.992L128 416a32 32 0 0 1-32-32V128a32 32 0 0 1 32-32h256z" fill="#1296db" p-id="70663"></path></svg>