<?xml version="1.0" standalone="no"?><!DOCTYPE svg PUBLIC "-//W3C//DTD SVG 1.1//EN" "http://www.w3.org/Graphics/SVG/1.1/DTD/svg11.dtd"><svg t="1726760696459" class="icon" viewBox="0 0 1024 1024" version="1.1" xmlns="http://www.w3.org/2000/svg" p-id="82108" width="32" height="32" xmlns:xlink="http://www.w3.org/1999/xlink"><path d="M679.936 162.645c-60.416 0-117.248 15.872-166.912 44.032-49.152-27.648-105.984-44.032-166.912-44.032-187.392 0-339.968 152.576-339.968 339.968S158.72 842.581 346.112 842.581c60.416 0 117.248-15.872 166.912-44.032 49.152 27.648 105.984 44.032 166.912 44.032 187.392 0 339.968-152.576 339.968-339.968S867.328 162.645 679.936 162.645z m-98.816 94.72c30.72-12.8 64.512-19.456 99.84-19.456 145.92 0 265.216 118.784 265.216 265.216S827.392 768.341 680.96 768.341c-35.328 0-69.12-7.168-99.84-19.456 64.512-61.952 104.96-148.992 104.96-245.248 0-97.28-40.448-184.32-104.96-246.272z" fill="#1296DB" p-id="82109"></path></svg>