<?xml version="1.0" standalone="no"?><!DOCTYPE svg PUBLIC "-//W3C//DTD SVG 1.1//EN" "http://www.w3.org/Graphics/SVG/1.1/DTD/svg11.dtd"><svg t="1726760218906" class="icon" viewBox="0 0 1055 1024" version="1.1" xmlns="http://www.w3.org/2000/svg" p-id="55837" width="32.96875" height="32" xmlns:xlink="http://www.w3.org/1999/xlink"><path d="M524.163745 27.091529a66.470793 65.885663 0 0 0-25.453164 6.436433l-347.56735 166.059955a66.470793 65.885663 0 0 0-35.926995 44.703949L29.494659 617.31238a66.470793 65.885663 0 0 0 9.011005 50.555251 66.470793 65.885663 0 0 0 3.744834 5.266172l240.605545 299.060055a66.470793 65.885663 0 0 0 51.959564 24.809521l385.71784-0.058513a66.470793 65.885663 0 0 0 51.959563-24.809521l240.48852-299.118568a66.470793 65.885663 0 0 0 12.872865-55.76291l-85.897116-373.020514a66.470793 65.885663 0 0 0-35.985509-44.703949L556.462934 33.527962a66.470793 65.885663 0 0 0-32.182162-6.436433z" fill="#326CE5" p-id="55838"></path><path d="M523.988206 0.117026a70.157113 69.630496 0 0 0-26.857477 6.846024l-366.876646 175.2465a70.157113 69.630496 0 0 0-38.033465 47.161496L1.759487 623.163683a70.157113 69.630496 0 0 0 9.537622 53.363875 70.157113 69.630496 0 0 0 3.978886 5.558738l253.946514 315.736265a70.157113 69.630496 0 0 0 54.826702 26.155321l407.250632-0.058513a70.157113 69.630496 0 0 0 54.826701-26.155321l253.888002-315.794779a70.157113 69.630496 0 0 0 13.516508-58.8641l-90.636671-393.792636a70.157113 69.630496 0 0 0-37.916438-47.161496L558.042785 6.904537a70.157113 69.630496 0 0 0-34.054579-6.787511z m0.175539 26.974503a66.470793 65.885663 0 0 1 32.182162 6.436433L904.030283 199.529404a66.470793 65.885663 0 0 1 35.985509 44.703949l85.838603 373.020514a66.470793 65.885663 0 0 1-12.872865 55.76291l-240.430007 299.177081a66.470793 65.885663 0 0 1-51.959563 24.751008l-385.776353 0.058513a66.470793 65.885663 0 0 1-51.959564-24.809521l-240.488519-299.060055a66.470793 65.885663 0 0 1-3.803347-5.266172 66.470793 65.885663 0 0 1-9.011005-50.496738l85.721577-373.020514a66.470793 65.885663 0 0 1 35.926995-44.703949L498.710581 33.586475a66.470793 65.885663 0 0 1 25.453164-6.436433z" fill="#FFFFFF" p-id="55839"></path><path d="M591.102642 163.017279v125.334893h128.904188V163.017279z m0 180.454159v31.94811c15.154873-3.569294 30.836363-5.675763 47.04447-5.675763 29.080972 0 56.757631 6.20238 81.859718 17.261341V343.471438z m-367.695829 1.93093v125.334893h128.904187V345.402368z m183.847915 0v125.334893h54.300084c18.139037-30.426771 43.884766-55.821423 74.604103-73.550869v-51.784024zM222.236553 527.787457v125.393406h128.904187V527.787457z m184.433045 0v125.393406h41.310193c-9.947214-24.048852-15.447438-50.321199-15.447438-77.822319 0-16.383646 2.164982-32.240675 5.851302-47.571087z" fill="#FFFFFF" p-id="55840"></path><path d="M645.870831 395.840593a187.8268 187.8268 0 0 0-187.24167 187.24167c0 102.982918 84.258751 187.24167 187.24167 187.241669 102.982918 0 187.24167-84.258751 187.24167-187.241669 0-102.982918-84.258751-187.24167-187.24167-187.24167z m78.582988 265.883171l-97.307155-59.917334v-112.345002h28.08625v97.365668l84.258752 50.555251z" fill="#FFFFFF" p-id="55841"></path></svg>