<?xml version="1.0" standalone="no"?><!DOCTYPE svg PUBLIC "-//W3C//DTD SVG 1.1//EN" "http://www.w3.org/Graphics/SVG/1.1/DTD/svg11.dtd"><svg t="1726761117027" class="icon" viewBox="0 0 1024 1024" version="1.1" xmlns="http://www.w3.org/2000/svg" p-id="120771" width="32" height="32" xmlns:xlink="http://www.w3.org/1999/xlink"><path d="M810.666667 170.666667a128 128 0 0 1 127.786666 120.490666L938.666667 298.666667v426.666666a128 128 0 0 1-120.490667 127.786667L810.666667 853.333333h-84.608a42.666667 42.666667 0 0 1-4.992-85.034666l4.992-0.298667H810.666667a42.666667 42.666667 0 0 0 42.368-37.674667L853.333333 725.333333V298.666667a42.666667 42.666667 0 0 0-37.674666-42.368L810.666667 256H213.333333a42.666667 42.666667 0 0 0-42.368 37.674667L170.666667 298.666667v426.666666a42.666667 42.666667 0 0 0 37.674666 42.368L213.333333 768h86.698667a42.666667 42.666667 0 0 1 4.992 85.034667L300.032 853.333333H213.333333a128 128 0 0 1-127.786666-120.490666L85.333333 725.333333V298.666667a128 128 0 0 1 120.490667-127.786667L213.333333 170.666667h597.333334z m-296.789334 170.666666c21.333333 0 38.954667 16.042667 41.386667 36.693334l0.256 4.821333v210.986667l80.213333-66.474667 4.224-3.072a41.770667 41.770667 0 0 1 54.442667 8.448 41.386667 41.386667 0 0 1-1.621333 54.912l-3.84 3.541333-150.314667 124.586667-4.394667 3.157333a41.813333 41.813333 0 0 1-44.458666 0l-4.394667-3.2-150.357333-124.544-3.797334-3.541333a41.429333 41.429333 0 0 1-4.693333-50.688l3.072-4.224 3.626667-3.797333A41.813333 41.813333 0 0 1 384 524.245333l4.224 3.114667 83.968 69.546667V382.848c0-22.912 18.645333-41.514667 41.642667-41.514667z" fill="#1296db" p-id="120772"></path></svg>