<?xml version="1.0" standalone="no"?><!DOCTYPE svg PUBLIC "-//W3C//DTD SVG 1.1//EN" "http://www.w3.org/Graphics/SVG/1.1/DTD/svg11.dtd"><svg t="1726761768021" class="icon" viewBox="0 0 1024 1024" version="1.1" xmlns="http://www.w3.org/2000/svg" p-id="162092" xmlns:xlink="http://www.w3.org/1999/xlink" width="32" height="32"><path d="M505.8 643.1c-4.9-3.2-11.3-5.5-19.3-6.6s-17.6-1.8-28.8-1.8h-27v92.1h27c11.2 0 20.8-0.7 28.8-2s14.4-3.8 19.3-7.3 8.4-8.4 10.6-14.6c2.2-6.2 3.3-14.2 3.3-23.9 0-9.2-1.1-16.6-3.3-22.4-2.2-5.7-5.7-10.2-10.6-13.5zM459.5 201.5L418.8 318h85.9l-39.9-116.5z" fill="#6CA0F5" p-id="162093"></path><path d="M904 0H120C53.7 0 0 53.7 0 120v784c0 66.3 53.7 120 120 120h784c66.3 0 120-53.7 120-120V120c0-66.3-53.7-120-120-120zM129.1 142.6h187.8V201H196.4v71.3H308v58H196.4V450h-67.3V142.6z m194 746.4h-194V581.6h187.8V640H196.4v63.3H308v56.3H196.4v70.9h126.7V889z m213 0l-72.2-112.1h-33.2V889h-67.3V581.6h104.5c20.7 0 38.5 1.8 53.4 5.3s27.2 9.2 37 16.8c9.7 7.7 16.9 17.7 21.5 30.1 4.6 12.4 6.9 27.5 6.9 45.2 0 25.7-4.7 45.8-14 60.2s-23.8 24.7-43.6 30.6L615.4 889h-79.3z m14.2-439l-26.1-76.2H399.3L372.7 450h-70l114.7-307.4h90.4L621.6 450h-71.3z m265.7 0l-90.4-134.7h-16.4V450h-67.3V142.6h67.3v118.3h16.4l88.6-118.3h78.9L781 285.2 897.6 450H816z" fill="#6CA0F5" p-id="162094"></path></svg>