<?xml version="1.0" standalone="no"?><!DOCTYPE svg PUBLIC "-//W3C//DTD SVG 1.1//EN" "http://www.w3.org/Graphics/SVG/1.1/DTD/svg11.dtd"><svg t="1726759984168" class="icon" viewBox="0 0 1024 1024" version="1.1" xmlns="http://www.w3.org/2000/svg" p-id="45047" width="32" height="32" xmlns:xlink="http://www.w3.org/1999/xlink"><path d="M0 331.456c0-9.536 9.856-14.912 16.448-8.96L252.16 567.04a12.224 12.224 0 0 1 0 17.92L16.448 829.44c-6.72 6.016-16.448 0.64-16.448-8.896V331.456zM776.704 32c8.512 0 16.64 3.648 22.72 10.048l215.168 230.72c6.016 6.4 9.408 15.104 9.408 24.192v660.736c0 19.008-14.272 34.304-32 34.304h-640c-17.728 0-32-15.36-32-34.304V66.304C320 47.296 334.272 32 352 32h424.704z m-106.496 384c-40.064 0-72.768 8.768-98.816 26.88-28.032 18.688-41.6 44.544-41.6 77.12 0 32.64 14.08 57.472 42.688 74.56 10.88 6.208 39.488 16.576 85.248 31.04 41.024 12.416 64.96 20.672 72.256 24.32 22.848 11.392 34.816 26.88 34.816 46.592 0 15.488-8.32 27.392-23.936 36.736-15.616 8.768-37.44 13.44-64.448 13.44-30.72 0-52.992-5.696-67.584-16-16.128-11.968-25.984-32.128-30.08-60.096H518.4c2.56 47.104 19.776 81.28 50.944 103.04 25.472 17.6 61.312 26.368 107.072 26.368 47.36 0 84.224-9.856 110.208-28.48 25.984-19.136 38.976-45.504 38.976-78.656 0-34.176-16.128-60.544-48.32-79.68-13.12-7.488-40.512-18.24-82.624-31.68l-25.6-8.064-18.944-6.336a282.432 282.432 0 0 1-33.472-12.928c-17.664-9.344-25.984-22.272-25.984-37.76 0-17.6 7.296-30.528 22.848-38.336 12.48-6.72 30.144-9.792 53.568-9.792 27.008 0 47.808 4.608 61.312 14.976 13.504 9.856 23.424 26.432 28.608 49.152h60.288c-3.648-40.32-18.688-70.4-44.672-89.536-24.448-18.112-58.752-26.88-102.4-26.88z m91.776-304.96v201.664h188.16l-188.16-201.6z" fill="#5AD8A6" p-id="45048"></path></svg>