<?xml version="1.0" standalone="no"?><!DOCTYPE svg PUBLIC "-//W3C//DTD SVG 1.1//EN" "http://www.w3.org/Graphics/SVG/1.1/DTD/svg11.dtd"><svg t="1726761454444" class="icon" viewBox="0 0 1024 1024" version="1.1" xmlns="http://www.w3.org/2000/svg" p-id="144371" xmlns:xlink="http://www.w3.org/1999/xlink" width="32" height="32"><path d="M0 0h1024v1024H0z" fill="#1296db" fill-opacity=".01" p-id="144372"></path><path d="M435.008 128c23.68 0 43.264 17.728 46.08 40.704l0.384 5.76v167.488a27.904 27.904 0 0 1-55.36 4.992l-0.448-4.992V183.808H183.68v316.224h204.224l-40.192-40.256a27.904 27.904 0 0 1 35.648-42.688l3.84 3.2L476.16 509.12a27.904 27.904 0 0 1 3.2 35.584l-0.256 0.64a29.696 29.696 0 0 1-16.768 17.152L387.2 637.44a27.904 27.904 0 0 1-42.688-35.584l3.2-3.84 33.856-33.92H183.744v308.096h241.92v-158.08c0-13.696 9.856-25.088 22.912-27.456l4.992-0.448c13.696 0 25.088 9.856 27.52 22.912l0.384 4.992v167.424c0 23.68-17.728 43.264-40.64 46.144l-5.824 0.384h-260.48a46.528 46.528 0 0 1-46.144-40.704L128 881.536V174.464c0-23.68 17.728-43.264 40.704-46.144L174.464 128h260.48z m446.464 0c23.68 0 43.264 17.728 46.144 40.704l0.384 5.76v707.008c0 23.68-17.728 43.264-40.704 46.144l-5.76 0.384h-260.48a46.528 46.528 0 0 1-46.208-40.704l-0.32-5.76v-167.488a27.904 27.904 0 0 1 55.36-4.992l0.448 4.992v158.08h241.792V564.032h-195.52l33.92 33.92a27.904 27.904 0 0 1 3.2 35.584l-3.2 3.84a27.904 27.904 0 0 1-35.648 3.2l-3.84-3.2-73.984-73.856c-12.16-2.688-21.504-14.464-22.4-28.928a28.224 28.224 0 0 1 4.352-21.632l3.2-3.84 88.832-88.832a27.904 27.904 0 0 1 42.688 35.648l-3.2 3.84-40.32 40.256h201.92V183.808H630.4v158.144a27.904 27.904 0 0 1-22.912 27.456l-4.992 0.448a27.904 27.904 0 0 1-27.52-22.912l-0.384-4.992V174.528c0-23.68 17.728-43.264 40.64-46.144L620.992 128h260.48z" fill="#1296db" p-id="144373"></path></svg>