<?xml version="1.0" standalone="no"?><!DOCTYPE svg PUBLIC "-//W3C//DTD SVG 1.1//EN" "http://www.w3.org/Graphics/SVG/1.1/DTD/svg11.dtd"><svg t="1726759326839" class="icon" viewBox="0 0 1024 1024" version="1.1" xmlns="http://www.w3.org/2000/svg" p-id="31454" width="32" height="32" xmlns:xlink="http://www.w3.org/1999/xlink"><path d="M821.39136 417.93536a60.6208 60.6208 0 0 0-25.21088-5.40672h-45.89568v104.2432h45.89568c15.83104 0 28.672-4.21888 38.0928-12.55424h0.02048c9.27744-8.192 14.00832-21.504 14.00832-39.58784 0-11.91936-2.56-21.89312-7.59808-29.67552a45.62944 45.62944 0 0 0-19.31264-17.01888z" fill="#75A2EA" p-id="31455"></path><path d="M512 20.48C240.5376 20.48 20.48 240.5376 20.48 512s220.0576 491.52 491.52 491.52 491.52-220.0576 491.52-491.52S783.4624 20.48 512 20.48z m-199.33184 603.7504a15.85152 15.85152 0 0 1-4.79232 11.53024 15.89248 15.89248 0 0 1-11.55072 4.8128 15.31904 15.31904 0 0 1-11.44832-4.87424 16.1792 16.1792 0 0 1-4.608-11.48928v-97.34144H175.69792v97.34144a15.85152 15.85152 0 0 1-4.79232 11.53024 15.872 15.872 0 0 1-22.75328 0 15.85152 15.85152 0 0 1-4.8128-11.55072V400.09728c0-4.48512 1.61792-8.31488 4.85376-11.42784a16.30208 16.30208 0 0 1 22.65088-0.02048 15.36 15.36 0 0 1 4.85376 11.44832v97.66912h104.57088v-97.66912c0-4.46464 1.55648-8.2944 4.68992-11.38688a16.52736 16.52736 0 0 1 22.85568-0.06144 15.36 15.36 0 0 1 4.85376 11.44832V624.2304z m192.6144-216.02304a14.17216 14.17216 0 0 1-10.40384 4.32128h-60.0064v210.71872a16.11776 16.11776 0 0 1-4.58752 11.48928 15.27808 15.27808 0 0 1-11.44832 4.87424 15.7696 15.7696 0 0 1-11.53024-4.8128 15.7696 15.7696 0 0 1-4.8128-11.55072V412.52864H342.8352a14.25408 14.25408 0 0 1-10.42432-4.32128 14.17216 14.17216 0 0 1-4.3008-10.38336c0-4.07552 1.45408-7.53664 4.38272-10.30144a14.47936 14.47936 0 0 1 10.3424-4.096h152.04352c3.9936 0 7.4752 1.37216 10.3424 4.11648a13.68064 13.68064 0 0 1 4.38272 10.28096 14.2336 14.2336 0 0 1-4.32128 10.38336z m192.83968-0.02048a14.336 14.336 0 0 1-10.42432 4.34176H627.712v210.71872a16.11776 16.11776 0 0 1-4.58752 11.48928 15.27808 15.27808 0 0 1-11.44832 4.87424 15.7696 15.7696 0 0 1-11.55072-4.8128 15.7696 15.7696 0 0 1-4.8128-11.53024v-210.7392h-59.65824a14.25408 14.25408 0 0 1-10.40384-4.32128 14.2336 14.2336 0 0 1-4.32128-10.38336c0-4.05504 1.47456-7.53664 4.4032-10.30144a14.45888 14.45888 0 0 1 10.32192-4.096h152.04352c3.97312 0 7.45472 1.37216 10.3424 4.096a13.94688 13.94688 0 0 1 4.4032 10.30144c0 3.9936-1.4336 7.4752-4.32128 10.36288z m147.00544 126.6688c-11.776 7.55712-26.15296 11.3664-42.74176 11.3664h-52.1216v77.02528a15.85152 15.85152 0 0 1-4.79232 11.53024 15.89248 15.89248 0 0 1-11.55072 4.8128 15.31904 15.31904 0 0 1-11.44832-4.87424 16.22016 16.22016 0 0 1-4.58752-11.48928V399.44192c0-4.46464 1.55648-8.2944 4.64896-11.3664a15.5648 15.5648 0 0 1 11.38688-4.66944h68.48512c14.60224 0 28.09856 3.82976 40.07936 11.3664 11.91936 7.4752 21.4016 17.6128 28.13952 30.16704 6.69696 12.4928 10.07616 25.84576 10.07616 39.69024 0 14.45888-2.99008 27.99616-8.88832 40.22272a72.51968 72.51968 0 0 1-26.68544 30.0032z" fill="#75A2EA" p-id="31456"></path></svg>