<?xml version="1.0" standalone="no"?><!DOCTYPE svg PUBLIC "-//W3C//DTD SVG 1.1//EN" "http://www.w3.org/Graphics/SVG/1.1/DTD/svg11.dtd"><svg t="1726760422303" class="icon" viewBox="0 0 1024 1024" version="1.1" xmlns="http://www.w3.org/2000/svg" p-id="64701" width="32" height="32" xmlns:xlink="http://www.w3.org/1999/xlink"><path d="M0 0m102.4 0l819.2 0q102.4 0 102.4 102.4l0 819.2q0 102.4-102.4 102.4l-819.2 0q-102.4 0-102.4-102.4l0-819.2q0-102.4 102.4-102.4Z" fill="#CDEAFF" p-id="64702"></path><path d="M346.432 703.104c43.2 0 72.544-14.24 87.936-42.72 8.32-15.616 12.48-37.504 12.48-65.696v-234.272h-44.672v222.464c0 28.16-2.24 47.36-6.784 57.504-7.392 16.512-23.136 24.768-47.136 24.768-17.088 0-29.664-4.608-37.76-13.76-8.064-9.152-12.128-22.848-12.128-41.024v-23.84H256v23.84c0 34.688 8.832 58.816 26.528 72.384 17.664 13.568 38.976 20.352 63.904 20.352z m287.84 0.896c35.52 0 66.688-7.968 93.504-23.872 26.816-15.904 40.224-42.336 40.224-79.296 0-29.696-10.56-52.352-31.744-67.936-12.224-8.96-29.6-16-52.128-21.12l-46.688-10.72c-31.424-7.264-51.584-13.312-60.48-18.176-13.632-7.552-20.416-19.52-20.416-35.904 0-14.848 5.824-27.84 17.44-39.072 11.648-11.2 30.752-16.832 57.344-16.832 32.96 0 56.288 8.736 70.048 26.144 7.392 9.536 12.224 23.264 14.496 41.12h42.368c0-37.12-12.16-64.096-36.576-80.992S667.584 352 632.704 352c-37.952 0-67.264 9.6-87.968 28.864-20.672 19.232-31.04 43.84-31.04 73.856 0 27.712 10.56 48.544 31.744 62.496 12.224 8 33.088 15.36 62.56 22.048l45.088 10.24c24.48 5.568 42.464 12.16 53.952 19.744 11.328 7.712 16.96 20.672 16.96 38.848 0 24.256-13.44 41.056-40.32 50.464a139.68 139.68 0 0 1-46.24 7.264c-37.76 0-64.128-11.072-79.104-33.184-7.84-11.84-12.288-27.2-13.344-46.112h-42.4c-0.448 36.032 11.04 64.608 34.464 85.664 23.424 21.216 55.808 31.808 97.216 31.808z" fill="#2988CC" p-id="64703"></path><path d="M329.792 498.624a8.256 8.256 0 0 0 16.512 0 8.256 8.256 0 0 0-16.512 0z" fill="#2988CC" p-id="64704"></path></svg>