<?xml version="1.0" standalone="no"?><!DOCTYPE svg PUBLIC "-//W3C//DTD SVG 1.1//EN" "http://www.w3.org/Graphics/SVG/1.1/DTD/svg11.dtd"><svg t="1726760167070" class="icon" viewBox="0 0 1024 1024" version="1.1" xmlns="http://www.w3.org/2000/svg" p-id="51943" width="32" height="32" xmlns:xlink="http://www.w3.org/1999/xlink"><path d="M113.792 113.792m113.792 0l568.874667 0q113.792 0 113.792 113.792l0 568.874667q0 113.792-113.792 113.792l-568.874667 0q-113.792 0-113.792-113.792l0-568.874667q0-113.792 113.792-113.792Z" fill="#366BB8" p-id="51944"></path><path d="M575.317333 616.832c0 19.84 15.616 35.84 34.901334 35.882667a35.456 35.456 0 0 0 35.114666-35.925334 35.541333 35.541333 0 0 0-35.2-35.882666 35.498667 35.498667 0 0 0-34.816 35.968m35.114667-175.744a35.541333 35.541333 0 0 0 34.901333-36.181334 35.584 35.584 0 0 0-35.413333-35.712c-19.029333 0.170667-34.602667 16.341333-34.602667 35.968 0 19.882667 15.786667 36.053333 35.114667 35.925334m-176.042667 317.056a35.370667 35.370667 0 0 0 35.2-35.541334 35.413333 35.413333 0 0 0-34.773333-36.266666 35.328 35.328 0 0 0-35.157333 35.84c0 19.84 15.488 35.882667 34.730666 35.968M399.658667 301.525333a35.413333 35.413333 0 0 0 34.645333 36.096 35.413333 35.413333 0 0 0 35.285333-35.712 35.370667 35.370667 0 0 0-34.645333-36.096 35.328 35.328 0 0 0-35.285333 35.712m34.730666 259.328c26.88 0.128 48.938667-22.357333 49.066667-49.962666 0.170667-27.52-21.717333-50.176-48.64-50.389334-26.752-0.213333-48.981333 22.4-49.066667 49.962667-0.085333 27.605333 21.802667 50.261333 48.64 50.389333m248.32 52.266667v7.765333l-1.024 6.826667c-5.589333 41.6-45.824 70.570667-85.76 61.781333-40.917333-9.002667-65.578667-49.621333-55.466666-91.306666 0.426667-1.706667 0.170667-2.602667-1.237334-3.626667-5.12-3.584-10.154667-7.296-15.232-11.008l-17.066666-12.373333c-15.018667 18.346667-33.834667 29.568-56.704 33.877333l-0.128 2.858667v39.168c-0.042667 2.090667 0.426667 2.944 2.56 3.498666a73.813333 73.813333 0 0 1 54.186666 68.906667 73.941333 73.941333 0 0 1-49.706666 73.173333c-5.248 1.749333-10.837333 2.56-16.213334 3.797334h-12.458666c-0.725333-0.170667-1.365333-0.426667-2.090667-0.512-34.432-3.712-62.378667-34.133333-63.872-69.674667-1.536-35.754667 20.736-66.816 54.442667-75.776 1.749333-0.512 2.261333-1.194667 2.261333-2.986667-0.085333-12.928-0.170667-25.898667 0.042667-38.826666 0.042667-2.986667-0.938667-3.797333-3.541334-4.437334-36.736-8.96-60.586667-32.085333-71.210666-69.333333-1.578667-5.589333-2.133333-11.52-3.157334-17.322667v-13.909333c0.170667-0.810667 0.426667-1.578667 0.512-2.389333 5.12-39.808 26.069333-66.773333 62.506667-81.024 4.522667-1.749333 9.301333-2.773333 13.994667-4.138667l0.128-0.768c0-13.141333 0-26.282667 0.085333-39.424 0-1.962667-1.024-2.218667-2.389333-2.602667-29.610667-8.533333-49.706667-32.64-53.333334-64-3.84-33.066667 16.512-66.517333 47.317334-77.226666 5.930667-2.090667 12.16-3.072 18.304-4.522667h12.416c1.834667 0.341333 3.669333 0.725333 5.546666 1.024 31.189333 5.205333 55.594667 31.104 59.818667 63.445333 4.096 31.786667-12.544 63.189333-40.874667 76.672-5.034667 2.346667-10.368 4.010667-15.658666 6.016v41.514667c23.381333 4.266667 42.410667 15.786667 57.386666 34.176 0.426667-0.128 0.64-0.128 0.768-0.213333 10.624-7.68 21.205333-15.317333 31.872-22.912 1.28-0.853333 1.194667-1.706667 0.853334-3.029334a74.752 74.752 0 0 1-1.706667-30.293333c5.674667-38.357333 39.253333-65.578667 77.226667-62.634667a72.277333 72.277333 0 0 1 63.36 53.034667c1.536 5.546667 2.133333 11.392 3.2 17.066667v7.765333l-0.981334 6.826667c-6.4 47.573333-56.405333 76.458667-99.413333 57.472a73.685333 73.685333 0 0 1-25.856-19.072c-0.341333 0.128-0.64 0.170667-0.853333 0.341333-10.624 7.637333-21.205333 15.317333-31.872 22.912-1.365333 0.981333-0.981333 1.877333-0.597334 3.072 6.442667 20.053333 6.4 40.149333-0.170666 60.202667-0.64 1.92-0.128 2.773333 1.322666 3.84 8.576 6.101333 17.066667 12.373333 25.6 18.517333l6.058667 4.394667c0.426667-0.213333 0.597333-0.256 0.725333-0.384l1.109334-1.194667c16.256-17.109333 35.925333-25.002667 59.264-23.125333 28.714667 2.389333 54.4 23.850667 62.378666 52.48 1.578667 5.76 2.218667 11.733333 3.285334 17.621333" fill="#FFFFFF" p-id="51945"></path></svg>