<?xml version="1.0" standalone="no"?><!DOCTYPE svg PUBLIC "-//W3C//DTD SVG 1.1//EN" "http://www.w3.org/Graphics/SVG/1.1/DTD/svg11.dtd"><svg t="1726761343437" class="icon" viewBox="0 0 1024 1024" version="1.1" xmlns="http://www.w3.org/2000/svg" p-id="129553" xmlns:xlink="http://www.w3.org/1999/xlink" width="32" height="32"><path d="M830.816 867.456c-110.272-53.184-189.056-147.68-228.416-256-15.744-39.392-25.6-84.672-29.536-124.064v-68.928h212.672c15.744 0 27.584-17.728 15.744-35.456L521.664 48.224c-9.856-11.808-31.52-11.808-39.392 0L210.528 383.008c-9.856 11.808 0 35.456 15.744 35.456h214.656v68.928c-5.92 41.344-15.744 86.656-29.536 124.064-39.392 108.32-118.144 202.816-228.416 256-15.744 5.92-21.664 25.6-15.744 39.392l25.6 61.056c7.872 15.744 25.6 21.664 41.344 11.808 118.144-57.12 212.672-147.68 269.792-256 59.072 108.32 151.616 198.88 271.744 256 15.744 7.872 35.456 5.92 41.344-11.808l25.6-61.056c11.808-13.792 3.936-31.52-11.808-39.392z" fill="#1296db" p-id="129554"></path></svg>