<?xml version="1.0" standalone="no"?><!DOCTYPE svg PUBLIC "-//W3C//DTD SVG 1.1//EN" "http://www.w3.org/Graphics/SVG/1.1/DTD/svg11.dtd"><svg t="1726761734461" class="icon" viewBox="0 0 1024 1024" version="1.1" xmlns="http://www.w3.org/2000/svg" p-id="161081" xmlns:xlink="http://www.w3.org/1999/xlink" width="32" height="32"><path d="M105.975702 520.569838V213.356448h702.038071v96.410678a11.09488 11.09488 0 0 0 17.917593 8.799387l190.334573-149.462056c5.674967-6.631422 4.782276-13.645427 0-17.535011L825.803839 2.362444A10.839825 10.839825 0 0 0 818.853598 0.003188a11.286171 11.286171 0 0 0-11.158643 11.158643v96.410678H95.327168c-52.413742 0-95.135404 42.721663-95.135404 95.326696v317.670633a31.881838 31.881838 0 0 0 31.881838 31.881838h41.956498a31.881838 31.881838 0 0 0 31.881838-31.881838zM914.371585 503.736228v307.149626H212.333513v-96.346914a11.09488 11.09488 0 0 0-17.917593-8.799387L4.081348 855.137845c-5.738731 6.695186-4.782276 13.70919 0 17.598775l190.4621 149.207001a10.839825 10.839825 0 0 0 6.822713 2.359256c6.121313 0 11.222407-5.101094 11.222407-11.158643v-96.410678h712.367787c52.413742 0 95.199168-42.721663 95.199168-95.326695V503.736228a31.881838 31.881838 0 0 0-31.881838-31.881838h-42.020262a31.881838 31.881838 0 0 0-31.881838 31.881838z" fill="#2469F2" p-id="161082"></path><path d="M390.106642 306.068832H306.193644v408.087526h85.315799l-0.063764-222.981575 78.556849 153.16035 11.349934 6.886477h57.76989l11.349934-6.886477 78.493085-153.16035V714.156358H714.28117V306.068832H630.368172l-11.477461 7.269059-108.717068 226.998687-108.525776-226.998687z" fill="#2469F2" p-id="161083"></path></svg>