<?xml version="1.0" standalone="no"?><!DOCTYPE svg PUBLIC "-//W3C//DTD SVG 1.1//EN" "http://www.w3.org/Graphics/SVG/1.1/DTD/svg11.dtd"><svg t="1726803959852" class="icon" viewBox="0 0 1024 1024" version="1.1" xmlns="http://www.w3.org/2000/svg" p-id="170975" xmlns:xlink="http://www.w3.org/1999/xlink" width="32" height="32"><path d="M910.138834 845.94154H657.595135a13.472819 13.472819 0 0 0-11.302426 6.224524L604.031464 916.274571l-6.593082 9.971525-11.220525 17.076491-31.347851 47.359622-3.521771 5.282656-6.01977 9.213934c-7.862557 11.875737-20.721114 18.837377-34.378213 18.612147-13.636623-0.245705-26.290426-7.657803-33.784425-19.799721l-54.99695-88.822326-38.718999-62.654753a13.51377 13.51377 0 0 0-11.466229-6.552131H113.2359c-45.578261 0-82.5159-39.312786-82.5159-87.798555V87.798556C30.72 39.312786 67.657639 0 113.2359 0h797.312442C956.126604 0 993.064242 39.312786 993.064242 87.798556v670.672035c0 48.506245-36.937639 87.819031-82.5159 87.819031l-0.409508-0.348082zM72.858393 83.171113v706.074018c0.040951 8.865852 6.756885 16.01177 15.090376 16.073197h318.904502c5.098377 0 9.828197 2.702754 12.633328 7.227819l8.804426 14.476115v0.470934l1.085196 1.678984 3.787951 6.204049 13.759475 22.174868 41.667458 67.343622 19.164984 30.999769 2.190868 3.562722a2.948459 2.948459 0 0 0 2.477525 1.392328 2.948459 2.948459 0 0 0 2.457049-1.392328l4.258885-6.285951 12.26477-18.796426 7.22782-10.995295 44.144983-67.343621 20.209229-30.610737 8.824901-13.636623a14.947049 14.947049 0 0 1 12.367147-6.838787h309.997699a14.639918 14.639918 0 0 0 10.647213-4.709344 16.585082 16.585082 0 0 0 4.443164-11.363852V82.78208c0-8.865852-6.756885-16.052721-15.090377-16.052721H86.781671a14.639918 14.639918 0 0 0-10.667688 4.709344 16.585082 16.585082 0 0 0-4.422689 11.343377l1.146623 0.389033z" fill="#1296db" p-id="170976"></path><path d="M606.119955 266.180322H644.982282v245.704913h-38.862327V266.180322z m-169.331636 0h44.574967l98.937178 245.704913h-42.097442l-24.099557-63.330441h-110.444358l-24.099557 63.269015H337.851141L436.788319 266.180322z m-21.232999 151.374702h86.692883l-42.445523-111.140522h-1.494705l-42.752655 111.140522z" fill="#1296db" p-id="170977"></path></svg>