<?xml version="1.0" standalone="no"?><!DOCTYPE svg PUBLIC "-//W3C//DTD SVG 1.1//EN" "http://www.w3.org/Graphics/SVG/1.1/DTD/svg11.dtd"><svg t="1728313741173" class="icon" viewBox="0 0 1024 1024" version="1.1" xmlns="http://www.w3.org/2000/svg" p-id="64544" xmlns:xlink="http://www.w3.org/1999/xlink" width="32" height="32"><path d="M725.333333 469.333333a42.666667 42.666667 0 1 1-85.312 0A42.666667 42.666667 0 0 1 725.333333 469.333333z m-170.666666 0a42.666667 42.666667 0 1 1-85.312 0A42.666667 42.666667 0 0 1 554.666667 469.333333z m-170.666667 0a42.666667 42.666667 0 1 1-85.312 0A42.666667 42.666667 0 0 1 384 469.333333zM213.333333 170.666667a85.333333 85.333333 0 0 0-85.333333 85.333333v426.666667a85.333333 85.333333 0 0 0 85.333333 85.333333h177.962667l60.330667 60.16a84.928 84.928 0 0 0 120.085333 0.576l0.576-0.597333L632.618667 768H810.666667a85.333333 85.333333 0 0 0 85.333333-85.333333V256a85.333333 85.333333 0 0 0-85.333333-85.333333H213.333333z m597.333334 42.666666a42.666667 42.666667 0 0 1 42.666666 42.666667v426.666667a42.666667 42.666667 0 0 1-42.666666 42.666666h-195.669334l-12.501333 12.373334-60.330667 60.586666a42.965333 42.965333 0 0 1-60.330666 0l-60.330667-60.586666-12.501333-12.373334H213.333333a42.666667 42.666667 0 0 1-42.666666-42.666666V256a42.666667 42.666667 0 0 1 42.666666-42.666667h597.333334z" fill="#1245fa" p-id="64545"></path></svg>