<?xml version="1.0" standalone="no"?><!DOCTYPE svg PUBLIC "-//W3C//DTD SVG 1.1//EN" "http://www.w3.org/Graphics/SVG/1.1/DTD/svg11.dtd"><svg t="1726761567503" class="icon" viewBox="0 0 1024 1024" version="1.1" xmlns="http://www.w3.org/2000/svg" p-id="151880" xmlns:xlink="http://www.w3.org/1999/xlink" width="32" height="32"><path d="M225.365333 617.6l392.234667-392.234667a64 64 0 0 1 90.496 0l90.538667 90.538667a64 64 0 0 1 0 90.496l-392.234667 392.234667a64 64 0 0 1-90.496 0l-90.538667-90.538667a64 64 0 0 1 0-90.496z" fill="#3699FF" p-id="151881"></path><path d="M149.973333 783.530667l30.165334-30.165334a21.333333 21.333333 0 0 1 30.165333 0l60.330667 60.330667a21.333333 21.333333 0 0 1 0 30.165333l-30.165334 30.165334a64 64 0 0 1-90.496-90.496z m633.557334-633.6a64 64 0 0 1 90.496 90.538666l-30.165334 30.165334a21.333333 21.333333 0 0 1-30.165333 0L753.365333 210.346667a21.333333 21.333333 0 0 1 0-30.165334l30.165334-30.165333z" fill="#3699FF" opacity=".3" p-id="151882"></path></svg>