<?xml version="1.0" standalone="no"?><!DOCTYPE svg PUBLIC "-//W3C//DTD SVG 1.1//EN" "http://www.w3.org/Graphics/SVG/1.1/DTD/svg11.dtd"><svg t="1726760301902" class="icon" viewBox="0 0 1024 1024" version="1.1" xmlns="http://www.w3.org/2000/svg" p-id="57913" width="32" height="32" xmlns:xlink="http://www.w3.org/1999/xlink"><path d="M0 0m512 0l0 0q512 0 512 512l0 0q0 512-512 512l0 0q-512 0-512-512l0 0q0-512 512-512Z" fill="#0DA365" p-id="57914"></path><path d="M691.2 486.4v-76.8a128 128 0 0 0-128-128h-230.4v204.8h-25.6v-179.2a51.2 51.2 0 0 1 51.2-51.2h230.4a128 128 0 0 1 128 128v102.4h-25.6z m-358.4 204.8v51.2h358.4v-51.2h25.6v25.6a51.2 51.2 0 0 1-51.2 51.2H358.4a51.2 51.2 0 0 1-51.2-51.2v-25.6h25.6z" fill="#FFFFFF" p-id="57915"></path><path d="M221.44 651.136a73.3696 73.3696 0 0 0 52.48 14.6176 88.192 88.192 0 0 0 35.584-6.2464 48.4352 48.4352 0 0 0 22.016-18.3296 46.5408 46.5408 0 0 0 7.936-26.4192 42.9312 42.9312 0 0 0-5.888-22.0416 46.08 46.08 0 0 0-18.944-16.512 192.9984 192.9984 0 0 0-43.008-13.1584 35.84 35.84 0 0 1-15.36-5.4784 8.0896 8.0896 0 0 1-3.328-6.4 10.24 10.24 0 0 1 4.096-8.2944 18.048 18.048 0 0 1 12.032-3.4048 22.784 22.784 0 0 1 15.104 4.5824 23.1936 23.1936 0 0 1 7.168 14.6176l43.264-2.56a45.3376 45.3376 0 0 0-17.664-33.7664 74.9312 74.9312 0 0 0-43.52-10.624 92.7232 92.7232 0 0 0-36.352 5.8368 44.5952 44.5952 0 0 0-19.968 16.0512 39.808 39.808 0 0 0-6.656 21.7088 36.3264 36.3264 0 0 0 13.056 28.7488 98.4064 98.4064 0 0 0 43.008 18.0736 57.0624 57.0624 0 0 1 23.296 8.6272 13.1072 13.1072 0 0 1 5.12 10.24 13.8496 13.8496 0 0 1-5.376 10.7264 21.76 21.76 0 0 1-15.104 4.608 24.3968 24.3968 0 0 1-20.224-9.0368 35.2256 35.2256 0 0 1-5.632-16.256l-43.52 2.7392a57.6256 57.6256 0 0 0 16.384 37.3504z m141.312 12.0832h45.824v-60.2368h49.92v60.2368h46.08v-148.9408h-46.08v52.1216h-49.92v-52.1216h-45.824v148.9408z m172.032 0h124.928v-33.7408h-78.848v-29.3376h71.168v-30.3872h-71.168v-23.68h76.8v-31.7952h-122.88v148.9408z m148.48 0h41.216v-148.9408h-41.216v148.9408z m68.864 0h41.216v-148.9408h-41.216v148.9408z" fill="#FFFFFF" p-id="57916"></path></svg>