<?xml version="1.0" standalone="no"?><!DOCTYPE svg PUBLIC "-//W3C//DTD SVG 1.1//EN" "http://www.w3.org/Graphics/SVG/1.1/DTD/svg11.dtd"><svg t="1726760125698" class="icon" viewBox="0 0 1024 1024" version="1.1" xmlns="http://www.w3.org/2000/svg" p-id="49947" width="32" height="32" xmlns:xlink="http://www.w3.org/1999/xlink"><path d="M511.775 63.952c-247.281 0-447.753 200.47-447.753 447.75 0 247.294 200.472 447.764 447.753 447.764s447.752-200.47 447.752-447.764c0-247.28-200.471-447.75-447.752-447.75z m0 862.566c-229.083 0-414.804-185.721-414.804-414.816C96.97 282.621 282.69 96.9 511.775 96.9c229.081 0 414.802 185.72 414.802 414.802 0.001 229.095-185.72 414.816-414.802 414.816z" fill="#3498DB" p-id="49948"></path><path d="M497.27 464.572h-0.875a55.14 55.14 0 0 1-2.626 12.715l-17.157 52.461h40.04l-17.066-52.074c-1.094-3.296-1.865-7.672-2.316-13.102zM637.687 463.027h-16.295v43.244h15.702c7.503 0 13.526-2.188 18.082-6.538 4.569-4.376 6.848-9.807 6.848-16.346 0-13.578-8.12-20.36-24.337-20.36z" fill="#3498DB" p-id="49949"></path><path d="M511.775 154.43c-197.305 0-357.272 159.968-357.272 357.272S314.47 868.988 511.775 868.988s357.272-159.981 357.272-357.286S709.08 154.43 511.775 154.43zM290.338 580.161c-10.207 7.554-24.725 11.339-43.528 11.339-17.208 0-31.3-2.78-42.28-8.34v-32.098c12.086 10.038 25.818 15.032 41.21 15.032 8.727 0 15.279-1.493 19.68-4.505 4.402-3.011 6.59-6.873 6.59-11.583 0-4.067-1.736-7.929-5.226-11.532-3.5-3.63-12.703-8.547-27.645-14.75-23.463-9.96-35.2-24.428-35.2-43.438 0-13.964 5.328-24.801 15.958-32.536 10.63-7.722 24.712-11.584 42.228-11.584 14.672 0 26.989 1.904 36.938 5.727v30.052c-10.076-6.86-21.879-10.282-35.393-10.282-7.877 0-14.184 1.44-18.907 4.324-4.71 2.87-7.079 6.744-7.079 11.584 0 3.886 1.621 7.452 4.853 10.708 3.23 3.268 11.21 7.684 23.95 13.243 14.931 6.396 25.189 13.153 30.788 20.272 5.585 7.104 8.39 15.573 8.39 25.406 0.002 14.414-5.108 25.405-15.327 32.961z m101.33 8.726H359.58v-124.02h-42.768v-26.179h117.712v26.179h-42.858v124.02z m143.8 0L524.22 554.46h-54.596l-11.044 34.428h-34.724l54.984-150.199h37.619l53.916 150.2h-34.906z m140.998 0L652.9 549.811c-4.84-8.082-8.817-13.296-11.918-15.61-3.103-2.33-6.41-3.502-9.898-3.502h-9.69v58.188h-31.997V438.688h52.653c35.742 0 53.62 13.579 53.62 40.722 0 10.22-3 18.985-8.972 26.282-5.984 7.298-14.209 12.446-24.672 15.406v0.4c6.911 2.33 14.569 9.949 22.973 22.882l28.316 44.507h-36.85z m108.009-124.02v124.02h-32.087v-124.02H709.62v-26.179h117.713v26.179h-42.858z" fill="#3498DB" p-id="49950"></path></svg>