<?xml version="1.0" standalone="no"?><!DOCTYPE svg PUBLIC "-//W3C//DTD SVG 1.1//EN" "http://www.w3.org/Graphics/SVG/1.1/DTD/svg11.dtd"><svg t="1726760050800" class="icon" viewBox="0 0 1024 1024" version="1.1" xmlns="http://www.w3.org/2000/svg" p-id="46956" width="32" height="32" xmlns:xlink="http://www.w3.org/1999/xlink"><path d="M136.64 136.64m82.56 0l585.92 0q82.56 0 82.56 82.56l0 585.92q0 82.56-82.56 82.56l-585.92 0q-82.56 0-82.56-82.56l0-585.92q0-82.56 82.56-82.56Z" fill="#B3D7FF" p-id="46957"></path><path d="M381.44 455.36a57.6 57.6 0 1 0 57.6 57.6 57.6 57.6 0 0 0-57.6-57.6zM642.56 594.88a57.92 57.92 0 1 0 57.6 57.6 57.92 57.92 0 0 0-57.6-57.6z" fill="#FFFFFF" p-id="46958"></path><path d="M642.56 568a83.84 83.84 0 0 0-69.12 36.48l-112-64a83.52 83.52 0 0 0 0-49.92L576 424a84.16 84.16 0 0 0 150.4-52.48 29.44 29.44 0 0 0 0-5.76v-6.08l-1.92-1.92a19.84 19.84 0 0 0-35.2 4.48V371.52a45.76 45.76 0 1 1-45.44-45.76 40.32 40.32 0 0 1 13.12 2.24h4.48a19.2 19.2 0 0 0 19.2-19.52 19.2 19.2 0 0 0-9.6-16.64l-4.16-1.92a80.32 80.32 0 0 0-24.32-1.92 84.8 84.8 0 0 0-84.8 84.8 67.52 67.52 0 0 0 2.24 17.28l-116.16 66.88a84.48 84.48 0 1 0-62.4 141.76 83.52 83.52 0 0 0 59.2-24.64l118.4 65.92a72.96 72.96 0 0 0 0 11.52 84.48 84.48 0 1 0 84.48-84.48z m-261.12-9.6A45.76 45.76 0 1 1 427.2 512a45.76 45.76 0 0 1-45.76 46.4zM642.56 608a45.76 45.76 0 1 1-45.76 45.44A45.76 45.76 0 0 1 642.56 608z" fill="#2B8FFF" p-id="46959"></path></svg>