<?xml version="1.0" standalone="no"?><!DOCTYPE svg PUBLIC "-//W3C//DTD SVG 1.1//EN" "http://www.w3.org/Graphics/SVG/1.1/DTD/svg11.dtd"><svg t="1732382279869" class="icon" viewBox="0 0 1024 1024" version="1.1" xmlns="http://www.w3.org/2000/svg" p-id="30945" xmlns:xlink="http://www.w3.org/1999/xlink" width="32" height="32"><path d="M673.61 341.72l-0.37-0.18a28.65 28.65 0 0 0-12-2.6 29.58 29.58 0 0 0-13.06 56.15c6.21 3.24 59.94 33.36 59.94 115.08 0 46-14.54 75.88-26.68 92.83-13.43 18.72-27.33 26.69-28.91 27.52l-0.28 0.09a29.63 29.63 0 1 0 26.5 53c3.62-1.85 88.49-46.42 88.49-173.54 0.14-122.39-89.73-166.49-93.63-168.35z m128-106.36a28.66 28.66 0 0 0-15.75-4.64 29.67 29.67 0 0 0-16.4 54.48c4.07 2.69 99.32 67.46 99.32 227.84 0 65.78-15.84 125.54-45.77 172.8-23.81 37.61-48.27 54.48-49.29 55.22a29.6 29.6 0 1 0 32.8 49.29c1.3-0.84 32.06-21.5 62.26-66.71C908 664.9 928 594 928 513c0-194.53-121.24-274.4-126.43-277.64zM567.25 788.31c0 50.31-58.65 77.74-97.29 45.59L301.61 693.43H157.35a59.35 59.35 0 0 1-59.3-59.29V392a59.34 59.34 0 0 1 59.49-59.3l143 0.47 169.52-141.08c38.63-32.15 97.19-4.64 97.19 45.58z" p-id="30946" fill="#1245fa"></path></svg>