<?xml version="1.0" standalone="no"?><!DOCTYPE svg PUBLIC "-//W3C//DTD SVG 1.1//EN" "http://www.w3.org/Graphics/SVG/1.1/DTD/svg11.dtd"><svg t="1732380040915" class="icon" viewBox="0 0 1024 1024" version="1.1" xmlns="http://www.w3.org/2000/svg" p-id="16779" xmlns:xlink="http://www.w3.org/1999/xlink" width="32" height="32"><path d="M512.5 911C292.415 911 114 732.585 114 512.5S292.415 114 512.5 114 911 292.415 911 512.5 732.585 911 512.5 911z m0-30C716.017 881 881 716.017 881 512.5S716.017 144 512.5 144 144 308.983 144 512.5 308.983 881 512.5 881zM414 387.833c0-5.303 1.43-10.508 4.139-15.067 8.321-14.002 26.418-18.607 40.42-10.286L666.744 486.2a29.492 29.492 0 0 1 10.159 10.073c8.438 13.931 3.985 32.066-9.946 40.505L458.772 662.88a29.492 29.492 0 0 1-15.28 4.266c-16.288 0-29.492-13.204-29.492-29.492V387.833z" fill="#2D8CF0" p-id="16780"></path></svg>