<?xml version="1.0" standalone="no"?><!DOCTYPE svg PUBLIC "-//W3C//DTD SVG 1.1//EN" "http://www.w3.org/Graphics/SVG/1.1/DTD/svg11.dtd"><svg t="1725116452056" class="icon" viewBox="0 0 1024 1024" version="1.1" xmlns="http://www.w3.org/2000/svg" p-id="3255" width="32" height="32" xmlns:xlink="http://www.w3.org/1999/xlink"><path d="M513.5 64c57.147 0 105.443 37.894 121.132 89.924C805.852 206.101 926 365.071 926 548.041c0 35.032-4.376 69.503-12.928 102.817C927.52 671.413 936 696.466 936 723.5c0 69.864-56.636 126.5-126.5 126.5-4.81 0-9.557-0.268-14.227-0.791C719.73 919.844 620.25 960 514.5 960c-106.093 0-205.834-40.427-281.383-111.36A127.559 127.559 0 0 1 214.5 850C144.636 850 88 793.364 88 723.5c0-29.29 9.955-56.255 26.665-77.696C106.948 614.076 103 581.316 103 548.041c0-110.71 43.867-214.548 120.512-291.286 47.123-47.18 104.953-82.321 168.656-102.155C407.64 102.222 456.107 64 513.5 64z m122.559 157.94l-0.23 0.901C621.537 277.038 572.185 317 513.5 317c-58.757 0-108.157-40.059-122.38-94.355-45.836 17.435-87.523 44.492-122.326 79.338C204.018 366.837 167 454.463 167 548.04a351.16 351.16 0 0 0 4.543 56.443C184.955 599.639 199.42 597 214.5 597c69.864 0 126.5 56.636 126.5 126.5 0 38.355-17.07 72.723-44.027 95.922C357.882 868.475 433.978 896 514.5 896c79.363 0 154.447-26.73 214.966-74.536C701.102 798.267 683 762.997 683 723.5c0-69.864 56.636-126.5 126.5-126.5 16.86 0 32.95 3.298 47.658 9.285A350.935 350.935 0 0 0 862 548.04c0-147.293-92.18-276.18-225.941-326.1zM809.5 661c-34.518 0-62.5 27.982-62.5 62.5s27.982 62.5 62.5 62.5 62.5-27.982 62.5-62.5-27.982-62.5-62.5-62.5z m-595 0c-34.518 0-62.5 27.982-62.5 62.5s27.982 62.5 62.5 62.5 62.5-27.982 62.5-62.5-27.982-62.5-62.5-62.5z m362.057-298c22.085 7.889 42.303 19.71 59.812 34.621l4.45 71.955 60.082 39.857A193.385 193.385 0 0 1 704 544c0 11.801-1.063 23.354-3.1 34.568l-60.08 39.856-4.45 71.955C618.86 705.29 598.641 717.11 576.556 725L512 692.849 447.444 725c-22.086-7.888-42.304-19.71-59.813-34.621l-4.45-71.955-60.082-39.857A193.385 193.385 0 0 1 320 544c0-11.8 1.063-23.353 3.099-34.566l60.082-39.858 4.45-71.955c17.509-14.911 37.727-26.733 59.813-34.621L512 395.151 576.557 363z m4.356 61.92l-51.655 25.725a31.98 31.98 0 0 1-28.516 0l-51.654-25.726-0.238 0.132c-0.829 0.463-1.653 0.935-2.472 1.415l-1.479 0.88-3.564 57.633a32.026 32.026 0 0 1-14.24 24.7L375.435 544l51.66 34.322a32.026 32.026 0 0 1 14.24 24.7l3.564 57.631 0.254 0.155c1.222 0.733 2.454 1.447 3.697 2.142l0.238 0.13 51.654-25.724a31.98 31.98 0 0 1 28.515 0l51.656 25.725 0.237-0.131a135.774 135.774 0 0 0 3.697-2.142l0.253-0.155 3.564-57.619a32.026 32.026 0 0 1 14.257-24.711l48.056-31.88 0.016-1.056L651 544c0-0.462 0-0.924-0.007-1.386l-0.016-1.057-48.056-31.88a32.026 32.026 0 0 1-14.257-24.71l-3.564-57.62-0.253-0.154a135.774 135.774 0 0 0-3.697-2.142l-0.237-0.132zM512 504c22.091 0 40 17.92 40 40.027s-17.909 40.027-40 40.027-40-17.92-40-40.027C472 521.921 489.909 504 512 504z m1.5-376c-34.518 0-62.5 27.982-62.5 62.5s27.982 62.5 62.5 62.5 62.5-27.982 62.5-62.5-27.982-62.5-62.5-62.5z" fill="#0840F8" p-id="3256"></path></svg>